<?xml version="1.0" encoding="UTF-8" standalone="no"?>
<!-- Created with Inkscape (http://www.inkscape.org/) -->

<svg
   xmlns:dc="http://purl.org/dc/elements/1.1/"
   xmlns:cc="http://creativecommons.org/ns#"
   xmlns:rdf="http://www.w3.org/1999/02/22-rdf-syntax-ns#"
   xmlns:svg="http://www.w3.org/2000/svg"
   xmlns="http://www.w3.org/2000/svg"
   xmlns:sodipodi="http://sodipodi.sourceforge.net/DTD/sodipodi-0.dtd"
   xmlns:inkscape="http://www.inkscape.org/namespaces/inkscape"
   width="608.1875"
   height="300.90625"
   id="svg2"
   version="1.1"
   inkscape:version="0.48.4 r9939"
   sodipodi:docname="Cloud.svg">
  <defs
     id="defs4" />
  <sodipodi:namedview
     id="base"
     pagecolor="#ffffff"
     bordercolor="#666666"
     borderopacity="1.0"
     inkscape:pageopacity="1"
     inkscape:pageshadow="2"
     inkscape:zoom="0.35"
     inkscape:cx="321.95089"
     inkscape:cy="7.5959874"
     inkscape:document-units="px"
     inkscape:current-layer="layer1"
     showgrid="false"
     fit-margin-top="0"
     fit-margin-left="0"
     fit-margin-right="0"
     fit-margin-bottom="0"
     showborder="false"
     inkscape:showpageshadow="false"
     inkscape:window-width="914"
     inkscape:window-height="665"
     inkscape:window-x="577"
     inkscape:window-y="154"
     inkscape:window-maximized="0" />
  <metadata
     id="metadata7">
    <rdf:RDF>
      <cc:Work
         rdf:about="">
        <dc:format>image/svg+xml</dc:format>
        <dc:type
           rdf:resource="http://purl.org/dc/dcmitype/StillImage" />
        <dc:title></dc:title>
      </cc:Work>
    </rdf:RDF>
  </metadata>
  <g
     inkscape:label="Layer 1"
     inkscape:groupmode="layer"
     id="layer1"
     transform="translate(-53.049106,-239.05192)">
    <path
       style="fill:#ffffff;fill-opacity:0.78680205;stroke:none"
       d="m 352.33041,239.05192 c -49.3636,0 -90.17511,31.23397 -96.71881,71.78125 -9.1159,-0.89367 -18.5276,-1.34375 -28.125,-1.34375 -85.7411,0 -155.218698,37.25444 -155.218698,83.21875 0,8.73348 2.5029,17.15331 7.1562,25.0625 -16.419396,9.56026 -26.374996,22.07233 -26.374996,35.75 0,30.05359 47.995494,54.40625 107.218794,54.40625 32.6098,0 61.8013,-7.37524 81.4687,-19.03125 17.9675,29.54033 72.85861,51.0625 137.81251,51.0625 62.594,0 115.8512,-19.98834 135.71876,-47.875 12.83228,4.00652 27.01077,6.25 41.9375,6.25 57.45539,0 104.03125,-32.96426 104.03125,-73.625 0,-23.16364 -15.11825,-43.81661 -38.75,-57.3125 4.36355,-7.0933 6.75,-14.7495 6.75,-22.71875 0,-37.12502 -51.60711,-67.21875 -115.25,-67.21875 -26.70731,0 -51.27141,5.32361 -70.81251,14.21875 -14.3048,-30.82001 -49.6011,-52.625 -90.8437,-52.625 z"
       id="path4223"
       inkscape:connector-curvature="0"
       inkscape:export-filename="C:\Home\Dev\Github\Games\Project Acorn\Assets\Images\Cloud.png"
       inkscape:export-xdpi="60"
       inkscape:export-ydpi="60" />
  </g>
</svg>
