<?xml version="1.0" encoding="UTF-8" standalone="no"?>
<!-- Created with Inkscape (http://www.inkscape.org/) -->

<svg
   xmlns:dc="http://purl.org/dc/elements/1.1/"
   xmlns:cc="http://creativecommons.org/ns#"
   xmlns:rdf="http://www.w3.org/1999/02/22-rdf-syntax-ns#"
   xmlns:svg="http://www.w3.org/2000/svg"
   xmlns="http://www.w3.org/2000/svg"
   xmlns:sodipodi="http://sodipodi.sourceforge.net/DTD/sodipodi-0.dtd"
   xmlns:inkscape="http://www.inkscape.org/namespaces/inkscape"
   width="744.09448819"
   height="1052.3622047"
   id="svg2"
   version="1.1"
   inkscape:version="0.48.4 r9939"
   sodipodi:docname="_sprites.svg">
  <defs
     id="defs4" />
  <sodipodi:namedview
     id="base"
     pagecolor="#ffffff"
     bordercolor="#666666"
     borderopacity="1.0"
     inkscape:pageopacity="0.0"
     inkscape:pageshadow="2"
     inkscape:zoom="1.979899"
     inkscape:cx="-299.01709"
     inkscape:cy="37.021179"
     inkscape:document-units="px"
     inkscape:current-layer="layer1"
     showgrid="false"
     showborder="false"
     inkscape:showpageshadow="false"
     inkscape:window-width="1536"
     inkscape:window-height="814"
     inkscape:window-x="-8"
     inkscape:window-y="-8"
     inkscape:window-maximized="1" />
  <metadata
     id="metadata7">
    <rdf:RDF>
      <cc:Work
         rdf:about="">
        <dc:format>image/svg+xml</dc:format>
        <dc:type
           rdf:resource="http://purl.org/dc/dcmitype/StillImage" />
        <dc:title></dc:title>
      </cc:Work>
    </rdf:RDF>
  </metadata>
  <g
     inkscape:label="Layer 1"
     inkscape:groupmode="layer"
     id="layer1">
    <g
       id="g4116">
      <g
         inkscape:export-ydpi="90"
         inkscape:export-xdpi="90"
         inkscape:export-filename="C:\Home\Dev\Github\Games\Jarrett\Assets\Sprites\BlueBall.png"
         transform="matrix(0.04237769,0,0,0.04237769,-250.74657,987.64174)"
         id="g3979">
        <path
           inkscape:connector-curvature="0"
           id="path2991-1"
           style="fill:#a3a3a3;fill-opacity:1;stroke:#000000;stroke-width:9.39999962;stroke-miterlimit:4;stroke-opacity:1;stroke-dasharray:none"
           d="m 115.8968,360.15296 c -124.1525384,-0.56786 -243.0481,87.68194 -277.32091,207.11338 -28.23392,96.76634 -3.89927,208.5078 65.258412,282.0116 67.07233,71.4768 171.21099,107.4271 267.968748,88.2188 102.30067,-19.3859 192.40939,-96.4417 223.10121,-196.6161 31.6129,-96.83258 8.84172,-210.61065 -61.26832,-285.11024 -54.7875,-60.42588 -135.71137,-97.20248 -217.73914,-95.61744 z m 372.67463,293.63781 c 0,205.92332 -166.93383,372.85713 -372.85714,372.85713 -205.923319,0 -372.85715,-166.93381 -372.85715,-372.85713 0,-205.92331 166.933831,-372.85715 372.85715,-372.85715 205.92331,0 372.85714,166.93384 372.85714,372.85715 z" />
        <path
           style="fill:#ffffff;fill-opacity:0.46276598;stroke:none"
           d="m 109.47046,293.68598 c -123.540906,0.34519 -244.0831,69.83232 -306.6499,176.09243 -50.9237,84.64784 -65.5756,191.04544 -37.8188,286.15757 1.00988,193.04913 923.1364,-132.30876 560.1403,-394.6763 -62.3583,-44.51569 -138.8138,-69.14124 -215.6716,-67.5737 z"
           id="path2991-4"
           inkscape:connector-curvature="0"
           sodipodi:nodetypes="ccccc" />
      </g>
      <path
         inkscape:export-ydpi="90"
         inkscape:export-xdpi="90"
         inkscape:export-filename="C:\Home\Dev\Github\Games\Jarrett\Assets\Sprites\BlueBall.png"
         inkscape:connector-curvature="0"
         id="path2991-1-0"
         d="m -245.86813,1002.9474 c -5.26129,-0.024 -10.29981,3.7158 -11.75221,8.777 -1.19649,4.1007 -0.16525,8.836 2.7655,11.951 2.84236,3.029 7.25552,4.5525 11.35589,3.7385 4.33527,-0.8216 8.15387,-4.087 9.45452,-8.3322 1.33968,-4.1035 0.37469,-8.9251 -2.59641,-12.0823 -2.32177,-2.5607 -5.75114,-4.1192 -9.22729,-4.052 z"
         style="fill:#3b43d4;fill-opacity:1;stroke:#000000;stroke-width:0.22460178;stroke-miterlimit:4;stroke-opacity:1;stroke-dasharray:none" />
      <path
         inkscape:export-ydpi="90"
         inkscape:export-xdpi="90"
         inkscape:export-filename="C:\Home\Dev\Github\Games\Jarrett\Assets\Sprites\BlueBall.png"
         sodipodi:nodetypes="ccccc"
         inkscape:connector-curvature="0"
         id="path2991-1-0-6"
         d="m -246.02953,1003.3681 c -4.96703,-0.026 -9.72887,3.4785 -11.1599,8.2332 -0.9293,2.9975 -0.87944,5.6029 0.46521,8.7697 15.44741,-3.2776 8.21412,-11.7199 21.92195,-10.6048 -4.08029,-5.9532 -8.08565,-6.4665 -11.22726,-6.3981 z"
         style="fill:#ffffff;fill-opacity:0.15957444;stroke:none" />
      <path
         inkscape:export-ydpi="90"
         inkscape:export-xdpi="90"
         inkscape:export-filename="C:\Home\Dev\Github\Games\Jarrett\Assets\Sprites\BlueBall.png"
         sodipodi:nodetypes="sssss"
         inkscape:connector-curvature="0"
         id="path4023"
         d="m -244.62171,1005.7918 c 0,1.1197 -3.9412,5.1009 -7.18775,4.8379 -1.13771,-0.092 -1.843,0.2442 -1.843,-0.8754 0,-1.1197 3.14729,-4.884 6.40446,-4.884 1.13771,0 2.62629,-0.1982 2.62629,0.9215 z"
         style="fill:#ffffff;fill-opacity:0.48936169;stroke:none" />
    </g>
    <g
       id="g4110">
      <path
         sodipodi:nodetypes="sssss"
         d="m -175.62775,1014.505 c 0,8.7266 -7.07427,15.8009 -15.80083,15.8009 -8.72655,0 -15.80082,-7.0743 -15.80082,-15.8009 0,-8.7265 7.07427,-15.80078 15.80082,-15.80078 8.72656,0 15.80083,7.07428 15.80083,15.80078 z"
         style="fill:#a3a3a3;fill-opacity:1;stroke:#b6b6b6;stroke-width:0.39835027000000001;stroke-miterlimit:4;stroke-opacity:1;stroke-dasharray:none"
         id="path2991-1-2"
         inkscape:connector-curvature="0" />
      <path
         transform="matrix(1,0,0,0.96189514,3.1963384,38.545296)"
         d="m -196.96428,1008.2104 a 3.4375,3.3482144 0 1 1 -6.875,0 3.4375,3.3482144 0 1 1 6.875,0 z"
         sodipodi:ry="3.3482144"
         sodipodi:rx="3.4375"
         sodipodi:cy="1008.2104"
         sodipodi:cx="-200.40178"
         id="path4070"
         style="fill:#ffffff;fill-opacity:0.51063831;stroke:none"
         sodipodi:type="arc" />
      <path
         transform="matrix(2.2281327,0,0,2.14323,251.68859,-1150.7065)"
         d="m -196.96428,1008.2104 a 3.4375,3.3482144 0 1 1 -6.875,0 3.4375,3.3482144 0 1 1 6.875,0 z"
         sodipodi:ry="3.3482144"
         sodipodi:rx="3.4375"
         sodipodi:cy="1008.2104"
         sodipodi:cx="-200.40178"
         id="path4070-5-4"
         style="fill:#ffffff;fill-opacity:0.20212767;stroke:none"
         sodipodi:type="arc" />
      <path
         transform="matrix(3.6607127,0,0,3.5212217,541.2341,-2537.6883)"
         d="m -196.96428,1008.2104 a 3.4375,3.3482144 0 1 1 -6.875,0 3.4375,3.3482144 0 1 1 6.875,0 z"
         sodipodi:ry="3.3482144"
         sodipodi:rx="3.4375"
         sodipodi:cy="1008.2104"
         sodipodi:cx="-200.40178"
         id="path4070-5"
         style="fill:#ffffff;fill-opacity:0.20212767;stroke:none"
         sodipodi:type="arc" />
    </g>
  </g>
</svg>
