<?xml version="1.0" encoding="UTF-8" standalone="no"?>
<!-- Created with Inkscape (http://www.inkscape.org/) -->

<svg
   xmlns:dc="http://purl.org/dc/elements/1.1/"
   xmlns:cc="http://creativecommons.org/ns#"
   xmlns:rdf="http://www.w3.org/1999/02/22-rdf-syntax-ns#"
   xmlns:svg="http://www.w3.org/2000/svg"
   xmlns="http://www.w3.org/2000/svg"
   xmlns:sodipodi="http://sodipodi.sourceforge.net/DTD/sodipodi-0.dtd"
   xmlns:inkscape="http://www.inkscape.org/namespaces/inkscape"
   width="744.09448819"
   height="1052.3622047"
   id="svg2"
   version="1.1"
   inkscape:version="0.48.4 r9939"
   sodipodi:docname="_sprites.svg">
  <defs
     id="defs4" />
  <sodipodi:namedview
     id="base"
     pagecolor="#ffffff"
     bordercolor="#666666"
     borderopacity="1.0"
     inkscape:pageopacity="0.0"
     inkscape:pageshadow="2"
     inkscape:zoom="0.9899495"
     inkscape:cx="-534.92312"
     inkscape:cy="49.942551"
     inkscape:document-units="px"
     inkscape:current-layer="layer1"
     showgrid="false"
     showborder="false"
     inkscape:showpageshadow="false"
     inkscape:window-width="1920"
     inkscape:window-height="1027"
     inkscape:window-x="-8"
     inkscape:window-y="-8"
     inkscape:window-maximized="1"
     showguides="true"
     inkscape:guide-bbox="true" />
  <metadata
     id="metadata7">
    <rdf:RDF>
      <cc:Work
         rdf:about="">
        <dc:format>image/svg+xml</dc:format>
        <dc:type
           rdf:resource="http://purl.org/dc/dcmitype/StillImage" />
        <dc:title></dc:title>
      </cc:Work>
    </rdf:RDF>
  </metadata>
  <g
     inkscape:label="Layer 1"
     inkscape:groupmode="layer"
     id="layer1">
    <path
       inkscape:connector-curvature="0"
       id="path2991-1"
       style="fill:#458fff;fill-opacity:1;stroke:#000000;stroke-width:0.39835027000000001;stroke-miterlimit:4;stroke-opacity:1;stroke-dasharray:none"
       d="m -245.83513,1002.9042 c -5.2613,-0.024 -10.29982,3.7157 -11.75222,8.777 -1.19649,4.1007 -0.16524,8.8361 2.7655,11.951 2.84237,3.029 7.25553,4.5525 11.3559,3.7385 4.33526,-0.8215 8.15386,-4.087 9.45451,-8.3321 1.33968,-4.1036 0.37469,-8.9252 -2.59641,-12.0824 -2.32177,-2.5607 -5.75113,-4.1192 -9.22728,-4.052 z m 15.79309,12.4437 c 0,8.7265 -7.07427,15.8008 -15.80083,15.8008 -8.72655,0 -15.80082,-7.0743 -15.80082,-15.8008 0,-8.7266 7.07427,-15.80084 15.80082,-15.80084 8.72656,0 15.80083,7.07424 15.80083,15.80084 z"
       inkscape:export-filename="C:\Home\Dev\Github\Games\Jarrett\Assets\Sprites\Peg-Blue-Selected.png"
       inkscape:export-xdpi="90"
       inkscape:export-ydpi="90" />
    <path
       style="fill:#ffffff;fill-opacity:0.46276598;stroke:none"
       d="m -246.10746,1000.0875 c -5.23538,0.015 -10.34368,2.9593 -12.99512,7.4624 -2.15803,3.5871 -2.77894,8.096 -1.60267,12.1267 0.0428,8.1809 39.12039,-5.607 23.73745,-16.7255 -2.6426,-1.8865 -5.88261,-2.9301 -9.13966,-2.8636 z"
       id="path2991-4"
       inkscape:connector-curvature="0"
       sodipodi:nodetypes="ccccc"
       inkscape:export-filename="C:\Home\Dev\Github\Games\Jarrett\Assets\Sprites\Peg-Blue-Selected.png"
       inkscape:export-xdpi="90"
       inkscape:export-ydpi="90" />
    <path
       style="fill:#0061ff;fill-opacity:1;stroke:#000000;stroke-width:0.22460178000000000;stroke-miterlimit:4;stroke-opacity:1;stroke-dasharray:none"
       d="m -245.86813,1002.9474 c -5.26129,-0.024 -10.29981,3.7158 -11.75221,8.777 -1.19649,4.1007 -0.16525,8.836 2.7655,11.951 2.84236,3.029 7.25552,4.5525 11.35589,3.7385 4.33527,-0.8216 8.15387,-4.087 9.45452,-8.3322 1.33968,-4.1035 0.37469,-8.9251 -2.59641,-12.0823 -2.32177,-2.5607 -5.75114,-4.1192 -9.22729,-4.052 z"
       id="path2991-1-0"
       inkscape:connector-curvature="0"
       inkscape:export-filename="C:\Home\Dev\Github\Games\Jarrett\Assets\Sprites\Peg-Blue-Selected.png"
       inkscape:export-xdpi="90"
       inkscape:export-ydpi="90" />
    <path
       style="fill:#ffffff;fill-opacity:0.15957444;stroke:none"
       d="m -246.02953,1003.3681 c -4.96703,-0.026 -9.72887,3.4785 -11.1599,8.2332 -0.9293,2.9975 -0.87944,5.6029 0.46521,8.7697 15.44741,-3.2776 8.21412,-11.7199 21.92195,-10.6048 -4.08029,-5.9532 -8.08565,-6.4665 -11.22726,-6.3981 z"
       id="path2991-1-0-6"
       inkscape:connector-curvature="0"
       sodipodi:nodetypes="ccccc"
       inkscape:export-filename="C:\Home\Dev\Github\Games\Jarrett\Assets\Sprites\Peg-Blue-Selected.png"
       inkscape:export-xdpi="90"
       inkscape:export-ydpi="90" />
    <path
       style="fill:#ffffff;fill-opacity:0.48936169;stroke:none"
       d="m -244.62171,1005.7918 c 0,1.1197 -3.9412,5.1009 -7.18775,4.8379 -1.13771,-0.092 -1.843,0.2442 -1.843,-0.8754 0,-1.1197 3.14729,-4.884 6.40446,-4.884 1.13771,0 2.62629,-0.1982 2.62629,0.9215 z"
       id="path4023"
       inkscape:connector-curvature="0"
       sodipodi:nodetypes="sssss"
       inkscape:export-filename="C:\Home\Dev\Github\Games\Jarrett\Assets\Sprites\Peg-Blue-Selected.png"
       inkscape:export-xdpi="90"
       inkscape:export-ydpi="90" />
    <g
       id="g4110"
       inkscape:export-filename="C:\Home\Dev\Github\Games\Jarrett\Assets\Sprites\SilverBall.png"
       inkscape:export-xdpi="90"
       inkscape:export-ydpi="90">
      <path
         sodipodi:nodetypes="sssss"
         d="m -175.62775,1014.505 c 0,8.7266 -7.07427,15.8009 -15.80083,15.8009 -8.72655,0 -15.80082,-7.0743 -15.80082,-15.8009 0,-8.7265 7.07427,-15.80078 15.80082,-15.80078 8.72656,0 15.80083,7.07428 15.80083,15.80078 z"
         style="fill:#a3a3a3;fill-opacity:1;stroke:#b6b6b6;stroke-width:0.39835027000000001;stroke-miterlimit:4;stroke-opacity:1;stroke-dasharray:none"
         id="path2991-1-2"
         inkscape:connector-curvature="0" />
      <path
         transform="matrix(1,0,0,0.96189514,3.1963384,38.545296)"
         d="m -196.96428,1008.2104 a 3.4375,3.3482144 0 1 1 -6.875,0 3.4375,3.3482144 0 1 1 6.875,0 z"
         sodipodi:ry="3.3482144"
         sodipodi:rx="3.4375"
         sodipodi:cy="1008.2104"
         sodipodi:cx="-200.40178"
         id="path4070"
         style="fill:#ffffff;fill-opacity:0.51063831;stroke:none"
         sodipodi:type="arc" />
      <path
         transform="matrix(2.2281327,0,0,2.14323,251.68859,-1150.7065)"
         d="m -196.96428,1008.2104 a 3.4375,3.3482144 0 1 1 -6.875,0 3.4375,3.3482144 0 1 1 6.875,0 z"
         sodipodi:ry="3.3482144"
         sodipodi:rx="3.4375"
         sodipodi:cy="1008.2104"
         sodipodi:cx="-200.40178"
         id="path4070-5-4"
         style="fill:#ffffff;fill-opacity:0.20212767;stroke:none"
         sodipodi:type="arc" />
      <path
         transform="matrix(3.6607127,0,0,3.5212217,541.2341,-2537.6883)"
         d="m -196.96428,1008.2104 a 3.4375,3.3482144 0 1 1 -6.875,0 3.4375,3.3482144 0 1 1 6.875,0 z"
         sodipodi:ry="3.3482144"
         sodipodi:rx="3.4375"
         sodipodi:cy="1008.2104"
         sodipodi:cx="-200.40178"
         id="path4070-5"
         style="fill:#ffffff;fill-opacity:0.20212767;stroke:none"
         sodipodi:type="arc" />
    </g>
    <path
       inkscape:connector-curvature="0"
       id="path2991-1-4"
       style="fill:#a3a3a3;fill-opacity:1;stroke:#000000;stroke-width:0.39835027;stroke-miterlimit:4;stroke-opacity:1;stroke-dasharray:none"
       d="m -291.42127,1003.553 c -5.2613,-0.024 -10.29982,3.7158 -11.75222,8.777 -1.19649,4.1007 -0.16524,8.8361 2.7655,11.951 2.84237,3.029 7.25553,4.5525 11.3559,3.7385 4.33526,-0.8215 8.15386,-4.087 9.45451,-8.3321 1.33968,-4.1036 0.37469,-8.9252 -2.59641,-12.0824 -2.32177,-2.5607 -5.75113,-4.1192 -9.22728,-4.052 z m 15.79309,12.4437 c 0,8.7265 -7.07427,15.8008 -15.80083,15.8008 -8.72655,0 -15.80082,-7.0743 -15.80082,-15.8008 0,-8.7266 7.07427,-15.8008 15.80082,-15.8008 8.72656,0 15.80083,7.0742 15.80083,15.8008 z"
       inkscape:export-filename="C:\Home\Dev\Github\Games\Jarrett\Assets\Sprites\Peg-Blue.png"
       inkscape:export-xdpi="90"
       inkscape:export-ydpi="90" />
    <path
       style="fill:#ffffff;fill-opacity:0.46276598;stroke:none"
       d="m -291.6936,1000.7363 c -5.23538,0.015 -10.34368,2.9593 -12.99512,7.4624 -2.15803,3.5872 -2.77894,8.096 -1.60267,12.1267 0.0428,8.1809 39.12039,-5.607 23.73745,-16.7255 -2.6426,-1.8865 -5.88261,-2.93 -9.13966,-2.8636 z"
       id="path2991-4-0"
       inkscape:connector-curvature="0"
       sodipodi:nodetypes="ccccc"
       inkscape:export-filename="C:\Home\Dev\Github\Games\Jarrett\Assets\Sprites\Peg-Blue.png"
       inkscape:export-xdpi="90"
       inkscape:export-ydpi="90" />
    <path
       style="fill:#033494;fill-opacity:1;stroke:#000000;stroke-width:0.22460178000000000;stroke-miterlimit:4;stroke-opacity:1;stroke-dasharray:none"
       d="m -291.45427,1003.5962 c -5.26129,-0.024 -10.29981,3.7158 -11.75221,8.777 -1.19649,4.1007 -0.16525,8.836 2.7655,11.951 2.84236,3.029 7.25552,4.5525 11.35589,3.7385 4.33527,-0.8216 8.15387,-4.087 9.45452,-8.3322 1.33968,-4.1035 0.37469,-8.9251 -2.59641,-12.0823 -2.32177,-2.5607 -5.75114,-4.1192 -9.22729,-4.052 z"
       id="path2991-1-0-9"
       inkscape:connector-curvature="0"
       inkscape:export-filename="C:\Home\Dev\Github\Games\Jarrett\Assets\Sprites\Peg-Blue.png"
       inkscape:export-xdpi="90"
       inkscape:export-ydpi="90" />
    <path
       style="fill:#ffffff;fill-opacity:0.15957444;stroke:none"
       d="m -291.61567,1004.0169 c -4.96703,-0.026 -9.72887,3.4785 -11.1599,8.2332 -0.9293,2.9975 -0.87944,5.6029 0.46521,8.7697 15.44741,-3.2776 8.21412,-11.7199 21.92195,-10.6048 -4.08029,-5.9532 -8.08565,-6.4665 -11.22726,-6.3981 z"
       id="path2991-1-0-6-4"
       inkscape:connector-curvature="0"
       sodipodi:nodetypes="ccccc"
       inkscape:export-filename="C:\Home\Dev\Github\Games\Jarrett\Assets\Sprites\Peg-Blue.png"
       inkscape:export-xdpi="90"
       inkscape:export-ydpi="90" />
    <path
       style="fill:#ffffff;fill-opacity:0.48936169;stroke:none"
       d="m -290.20785,1006.4406 c 0,1.1197 -3.9412,5.1009 -7.18775,4.8379 -1.13771,-0.092 -1.843,0.2442 -1.843,-0.8754 0,-1.1197 3.14729,-4.884 6.40446,-4.884 1.13771,0 2.62629,-0.1982 2.62629,0.9215 z"
       id="path4023-8"
       inkscape:connector-curvature="0"
       sodipodi:nodetypes="sssss"
       inkscape:export-filename="C:\Home\Dev\Github\Games\Jarrett\Assets\Sprites\Peg-Blue.png"
       inkscape:export-xdpi="90"
       inkscape:export-ydpi="90" />
    <path
       inkscape:connector-curvature="0"
       id="path2991-1-07"
       style="fill:#ffa83a;fill-opacity:1;stroke:#000000;stroke-width:0.39835027000000001;stroke-miterlimit:4;stroke-opacity:1;stroke-dasharray:none"
       d="m -245.89977,1044.6449 c -5.2613,-0.024 -10.29982,3.7157 -11.75222,8.7769 -1.19649,4.1008 -0.16524,8.8361 2.7655,11.951 2.84237,3.0291 7.25553,4.5525 11.3559,3.7385 4.33526,-0.8215 8.15386,-4.0869 9.45451,-8.3321 1.33968,-4.1035 0.37469,-8.9252 -2.59641,-12.0823 -2.32177,-2.5607 -5.75113,-4.1192 -9.22728,-4.052 z m 15.79309,12.4436 c 0,8.7266 -7.07427,15.8009 -15.80083,15.8009 -8.72655,0 -15.80082,-7.0743 -15.80082,-15.8009 0,-8.7265 7.07427,-15.8008 15.80082,-15.8008 8.72656,0 15.80083,7.0743 15.80083,15.8008 z"
       inkscape:export-filename="C:\Home\Dev\Github\Games\Jarrett\Assets\Sprites\Peg-Orange-Selected.png"
       inkscape:export-xdpi="90"
       inkscape:export-ydpi="90" />
    <path
       style="fill:#ffffff;fill-opacity:0.46276598;stroke:none"
       d="m -246.1721,1041.8281 c -5.23538,0.015 -10.34368,2.9594 -12.99512,7.4624 -2.15803,3.5872 -2.77894,8.0961 -1.60267,12.1267 0.0428,8.181 39.12039,-5.6069 23.73745,-16.7254 -2.6426,-1.8865 -5.88261,-2.9301 -9.13966,-2.8637 z"
       id="path2991-4-6"
       inkscape:connector-curvature="0"
       sodipodi:nodetypes="ccccc"
       inkscape:export-filename="C:\Home\Dev\Github\Games\Jarrett\Assets\Sprites\Peg-Orange-Selected.png"
       inkscape:export-xdpi="90"
       inkscape:export-ydpi="90" />
    <path
       style="fill:#ff7f00;fill-opacity:1;stroke:#000000;stroke-width:0.22460178000000000;stroke-miterlimit:4;stroke-opacity:1;stroke-dasharray:none"
       d="m -245.93277,1044.6881 c -5.26129,-0.024 -10.29981,3.7158 -11.75221,8.777 -1.19649,4.1007 -0.16525,8.836 2.7655,11.951 2.84236,3.029 7.25552,4.5525 11.35589,3.7385 4.33527,-0.8216 8.15387,-4.087 9.45452,-8.3322 1.33968,-4.1035 0.37469,-8.9251 -2.59641,-12.0823 -2.32177,-2.5607 -5.75114,-4.1192 -9.22729,-4.052 z"
       id="path2991-1-0-3"
       inkscape:connector-curvature="0"
       inkscape:export-filename="C:\Home\Dev\Github\Games\Jarrett\Assets\Sprites\Peg-Orange-Selected.png"
       inkscape:export-xdpi="90"
       inkscape:export-ydpi="90" />
    <path
       style="fill:#ffffff;fill-opacity:0.15957444;stroke:none"
       d="m -246.09417,1045.1088 c -4.96703,-0.026 -9.72887,3.4785 -11.1599,8.2332 -0.9293,2.9975 -0.87944,5.6029 0.46521,8.7697 15.44741,-3.2776 8.21412,-11.7199 21.92195,-10.6048 -4.08029,-5.9532 -8.08565,-6.4665 -11.22726,-6.3981 z"
       id="path2991-1-0-6-6"
       inkscape:connector-curvature="0"
       sodipodi:nodetypes="ccccc"
       inkscape:export-filename="C:\Home\Dev\Github\Games\Jarrett\Assets\Sprites\Peg-Orange-Selected.png"
       inkscape:export-xdpi="90"
       inkscape:export-ydpi="90" />
    <path
       style="fill:#ffffff;fill-opacity:0.48936169;stroke:none"
       d="m -244.68635,1047.5325 c 0,1.1197 -3.9412,5.1009 -7.18775,4.8379 -1.13771,-0.092 -1.843,0.2442 -1.843,-0.8754 0,-1.1197 3.14729,-4.884 6.40446,-4.884 1.13771,0 2.62629,-0.1982 2.62629,0.9215 z"
       id="path4023-1"
       inkscape:connector-curvature="0"
       sodipodi:nodetypes="sssss"
       inkscape:export-filename="C:\Home\Dev\Github\Games\Jarrett\Assets\Sprites\Peg-Orange-Selected.png"
       inkscape:export-xdpi="90"
       inkscape:export-ydpi="90" />
    <path
       inkscape:connector-curvature="0"
       id="path2991-1-4-4"
       style="fill:#a3a3a3;fill-opacity:1;stroke:#000000;stroke-width:0.39835027;stroke-miterlimit:4;stroke-opacity:1;stroke-dasharray:none"
       d="m -291.48591,1045.2937 c -5.2613,-0.024 -10.29982,3.7157 -11.75222,8.7769 -1.19649,4.1008 -0.16524,8.8361 2.7655,11.951 2.84237,3.0291 7.25553,4.5525 11.3559,3.7385 4.33526,-0.8215 8.15386,-4.0869 9.45451,-8.3321 1.33968,-4.1035 0.37469,-8.9252 -2.59641,-12.0823 -2.32177,-2.5607 -5.75113,-4.1192 -9.22728,-4.052 z m 15.79309,12.4436 c 0,8.7266 -7.07427,15.8009 -15.80083,15.8009 -8.72655,0 -15.80082,-7.0743 -15.80082,-15.8009 0,-8.7265 7.07427,-15.8008 15.80082,-15.8008 8.72656,0 15.80083,7.0743 15.80083,15.8008 z"
       inkscape:export-filename="C:\Home\Dev\Github\Games\Jarrett\Assets\Sprites\Peg-Orange.png"
       inkscape:export-xdpi="90"
       inkscape:export-ydpi="90" />
    <path
       style="fill:#ffffff;fill-opacity:0.46276598;stroke:none"
       d="m -291.75824,1042.4769 c -5.23538,0.015 -10.34368,2.9594 -12.99512,7.4624 -2.15803,3.5872 -2.77894,8.0961 -1.60267,12.1267 0.0428,8.181 39.12039,-5.6069 23.73745,-16.7254 -2.6426,-1.8865 -5.88261,-2.9301 -9.13966,-2.8637 z"
       id="path2991-4-0-2"
       inkscape:connector-curvature="0"
       sodipodi:nodetypes="ccccc"
       inkscape:export-filename="C:\Home\Dev\Github\Games\Jarrett\Assets\Sprites\Peg-Orange.png"
       inkscape:export-xdpi="90"
       inkscape:export-ydpi="90" />
    <path
       style="fill:#ab4d00;fill-opacity:1;stroke:#000000;stroke-width:0.22460178000000000;stroke-miterlimit:4;stroke-opacity:1;stroke-dasharray:none"
       d="m -291.51891,1045.3369 c -5.26129,-0.024 -10.29981,3.7158 -11.75221,8.777 -1.19649,4.1007 -0.16525,8.836 2.7655,11.951 2.84236,3.029 7.25552,4.5525 11.35589,3.7385 4.33527,-0.8216 8.15387,-4.087 9.45452,-8.3322 1.33968,-4.1035 0.37469,-8.9251 -2.59641,-12.0823 -2.32177,-2.5607 -5.75114,-4.1192 -9.22729,-4.052 z"
       id="path2991-1-0-9-0"
       inkscape:connector-curvature="0"
       inkscape:export-filename="C:\Home\Dev\Github\Games\Jarrett\Assets\Sprites\Peg-Orange.png"
       inkscape:export-xdpi="90"
       inkscape:export-ydpi="90" />
    <path
       style="fill:#ffffff;fill-opacity:0.15957444;stroke:none"
       d="m -291.68031,1045.7576 c -4.96703,-0.026 -9.72887,3.4785 -11.1599,8.2332 -0.9293,2.9975 -0.87944,5.6029 0.46521,8.7697 15.44741,-3.2776 8.21412,-11.7199 21.92195,-10.6048 -4.08029,-5.9532 -8.08565,-6.4665 -11.22726,-6.3981 z"
       id="path2991-1-0-6-4-9"
       inkscape:connector-curvature="0"
       sodipodi:nodetypes="ccccc"
       inkscape:export-filename="C:\Home\Dev\Github\Games\Jarrett\Assets\Sprites\Peg-Orange.png"
       inkscape:export-xdpi="90"
       inkscape:export-ydpi="90" />
    <path
       style="fill:#ffffff;fill-opacity:0.48936169;stroke:none"
       d="m -290.27249,1048.1813 c 0,1.1197 -3.9412,5.1009 -7.18775,4.8379 -1.13771,-0.092 -1.843,0.2442 -1.843,-0.8754 0,-1.1197 3.14729,-4.884 6.40446,-4.884 1.13771,0 2.62629,-0.1982 2.62629,0.9215 z"
       id="path4023-8-7"
       inkscape:connector-curvature="0"
       sodipodi:nodetypes="sssss"
       inkscape:export-filename="C:\Home\Dev\Github\Games\Jarrett\Assets\Sprites\Peg-Orange.png"
       inkscape:export-xdpi="90"
       inkscape:export-ydpi="90" />
    <path
       style="fill:#542600;fill-opacity:1;stroke:#201500;stroke-width:1.76634967;stroke-linejoin:round;stroke-miterlimit:4;stroke-opacity:1"
       d="m -419.89737,1204.7858 26.27703,0 c 1.08987,0 2.15843,2.7648 2.85115,4.1163 l 5.20252,10.1494 c 0.94856,1.8505 -0.8774,4.369 -1.96726,4.369 l -26.27703,0 c -1.08987,0 -2.31889,-2.4997 -3.22996,-4.369 l -4.82371,-9.8969 c -1.96291,-4.0273 0.91911,-4.3688 1.96726,-4.3688 z"
       id="rect4077"
       inkscape:connector-curvature="0"
       sodipodi:nodetypes="sssssssss"
       inkscape:export-filename="C:\Home\Dev\Github\Games\Jarrett\Assets\Sprites\Orange-Score.png"
       inkscape:export-xdpi="90"
       inkscape:export-ydpi="90" />
    <path
       style="fill:#ffffff;fill-opacity:0.19576721;stroke:none"
       d="m -420.60974,1206.1991 c -1.10437,1.6495 1.17413,3.7869 2.01856,6.3014 13.18046,1.7443 21.30184,0.5541 26.50634,-1.9004 -0.17311,-1.9068 -1.12415,-4.5964 -2.61104,-4.5898 -8.3764,0.042 -12.65627,0.042 -20.98937,0.1883 z"
       id="rect4077-4"
       inkscape:connector-curvature="0"
       sodipodi:nodetypes="cccccc"
       inkscape:export-filename="C:\Home\Dev\Github\Games\Jarrett\Assets\Sprites\Orange-Score.png"
       inkscape:export-xdpi="90"
       inkscape:export-ydpi="90" />
    <path
       style="fill:#311010;fill-opacity:1;stroke:#230b0b;stroke-width:2.46213651000000010;stroke-linejoin:round;stroke-miterlimit:4;stroke-opacity:1"
       d="m -358.68394,1172.5 52.99768,0 c 2.19814,0 2.70793,2.298 3.96775,4.2087 l 6.51304,9.8784 c 1.25983,1.9108 -1.76961,4.2089 -3.96773,4.2089 l -52.99768,0 c -2.19814,0 -2.70793,-2.2981 -3.96775,-4.2089 l -6.51304,-9.8784 c -1.25983,-1.9107 1.76961,-4.2087 3.96773,-4.2087 z"
       id="rect4077-45"
       inkscape:connector-curvature="0"
       sodipodi:nodetypes="sssssssss"
       inkscape:export-filename="C:\Home\Dev\Github\Games\Jarrett\Assets\Sprites\Life-Red.png"
       inkscape:export-xdpi="90"
       inkscape:export-ydpi="90" />
    <path
       style="fill:#ffffff;fill-opacity:0.19576721;stroke:none"
       d="m -358.5927,1173.7398 c -2.22738,1.5891 -0.43328,4.0131 1.26983,6.4355 26.58344,1.6804 42.96331,0.8987 53.46018,-1.4658 -0.34915,-1.837 -0.99392,-5.0362 -3.99281,-5.0299 -16.89421,0.041 -33.93031,-0.081 -50.7372,0.06 z"
       id="rect4077-4-2"
       inkscape:connector-curvature="0"
       sodipodi:nodetypes="cccccc"
       inkscape:export-filename="C:\Home\Dev\Github\Games\Jarrett\Assets\Sprites\Life-Red.png"
       inkscape:export-xdpi="90"
       inkscape:export-ydpi="90" />
    <path
       style="fill:#3a2c00;fill-opacity:1;stroke:#211900;stroke-width:2.46213651000000010;stroke-linejoin:round;stroke-miterlimit:4;stroke-opacity:1"
       d="m -441.89823,1172.4999 52.99769,0 c 2.19814,0 2.70793,2.298 3.96775,4.2087 l 6.51304,9.8784 c 1.25983,1.9108 -1.76961,4.2089 -3.96773,4.2089 l -52.99768,0 c -2.19815,0 -2.70794,-2.2981 -3.96776,-4.2089 l -6.51304,-9.8784 c -1.25983,-1.9107 1.76961,-4.2087 3.96773,-4.2087 z"
       id="rect4077-45-9"
       inkscape:connector-curvature="0"
       sodipodi:nodetypes="sssssssss"
       inkscape:export-filename="C:\Home\Dev\Github\Games\Jarrett\Assets\Sprites\Life-Yellow.png"
       inkscape:export-xdpi="90"
       inkscape:export-ydpi="90" />
    <path
       style="fill:#ffffff;fill-opacity:0.19576721;stroke:none"
       d="m -441.80699,1173.7397 c -2.22738,1.5891 -0.43328,4.0131 1.26983,6.4355 26.58345,1.6804 42.96332,0.8987 53.46019,-1.4658 -0.34915,-1.837 -0.99392,-5.0362 -3.99281,-5.0299 -16.89421,0.041 -33.93031,-0.081 -50.73721,0.06 z"
       id="rect4077-4-2-1"
       inkscape:connector-curvature="0"
       sodipodi:nodetypes="cccccc"
       inkscape:export-filename="C:\Home\Dev\Github\Games\Jarrett\Assets\Sprites\Life-Yellow.png"
       inkscape:export-xdpi="90"
       inkscape:export-ydpi="90" />
    <path
       style="fill:#002806;fill-opacity:1;stroke:#001804;stroke-width:2.46213651000000010;stroke-linejoin:round;stroke-miterlimit:4;stroke-opacity:1"
       d="m -525.46965,1173.9285 52.99768,0 c 2.19814,0 2.70793,2.298 3.96775,4.2087 l 6.51304,9.8784 c 1.25983,1.9108 -1.76961,4.2089 -3.96773,4.2089 l -52.99768,0 c -2.19814,0 -2.70793,-2.2981 -3.96775,-4.2089 l -6.51304,-9.8784 c -1.25983,-1.9107 1.76961,-4.2087 3.96773,-4.2087 z"
       id="rect4077-45-2"
       inkscape:connector-curvature="0"
       sodipodi:nodetypes="sssssssss"
       inkscape:export-filename="C:\Home\Dev\Github\Games\Jarrett\Assets\Sprites\Life-Green.png"
       inkscape:export-xdpi="90"
       inkscape:export-ydpi="90" />
    <path
       style="fill:#ffffff;fill-opacity:0.19576721;stroke:none"
       d="m -525.37841,1175.1683 c -2.22738,1.5891 -0.43328,4.0131 1.26983,6.4355 26.58344,1.6804 42.96331,0.8987 53.46018,-1.4658 -0.34915,-1.837 -0.99392,-5.0362 -3.99281,-5.0299 -16.89421,0.041 -33.93031,-0.081 -50.7372,0.06 z"
       id="rect4077-4-2-4"
       inkscape:connector-curvature="0"
       sodipodi:nodetypes="cccccc"
       inkscape:export-filename="C:\Home\Dev\Github\Games\Jarrett\Assets\Sprites\Life-Green.png"
       inkscape:export-xdpi="90"
       inkscape:export-ydpi="90" />
    <path
       style="fill:#c12c2c;fill-opacity:1;stroke:#8b2020;stroke-width:2.46213651;stroke-linejoin:round;stroke-miterlimit:4;stroke-opacity:1"
       d="m -359.75537,1143.2143 52.99769,0 c 2.19814,0 2.70793,2.298 3.96775,4.2087 l 6.51304,9.8784 c 1.25983,1.9108 -1.76961,4.2089 -3.96773,4.2089 l -52.99768,0 c -2.19815,0 -2.70794,-2.2981 -3.96776,-4.2089 l -6.51304,-9.8784 c -1.25983,-1.9107 1.76961,-4.2087 3.96773,-4.2087 z"
       id="rect4077-45-99"
       inkscape:connector-curvature="0"
       sodipodi:nodetypes="sssssssss"
       inkscape:export-filename="C:\Home\Dev\Github\Games\Jarrett\Assets\Sprites\Life-Red-Selected.png"
       inkscape:export-xdpi="90"
       inkscape:export-ydpi="90" />
    <path
       style="fill:#ffffff;fill-opacity:0.44680852;stroke:none"
       d="m -359.66413,1144.4541 c -2.22738,1.5891 -0.43328,4.0131 1.26983,6.4355 26.58345,1.6804 42.96332,0.8987 53.46019,-1.4658 -0.34915,-1.837 -0.99392,-5.0362 -3.99281,-5.0299 -16.89421,0.041 -33.93031,-0.081 -50.73721,0.06 z"
       id="rect4077-4-2-3"
       inkscape:connector-curvature="0"
       sodipodi:nodetypes="cccccc"
       inkscape:export-filename="C:\Home\Dev\Github\Games\Jarrett\Assets\Sprites\Life-Red-Selected.png"
       inkscape:export-xdpi="90"
       inkscape:export-ydpi="90" />
    <path
       style="fill:#cfbc1c;fill-opacity:1;stroke:#a59616;stroke-width:2.46213651;stroke-linejoin:round;stroke-miterlimit:4;stroke-opacity:1"
       d="m -447.61251,1143.2142 52.99769,0 c 2.19814,0 2.70793,2.298 3.96775,4.2087 l 6.51304,9.8784 c 1.25983,1.9108 -1.76961,4.2089 -3.96773,4.2089 l -52.99768,0 c -2.19815,0 -2.70794,-2.2981 -3.96776,-4.2089 l -6.51304,-9.8784 c -1.25983,-1.9107 1.76961,-4.2087 3.96773,-4.2087 z"
       id="rect4077-45-99-7"
       inkscape:connector-curvature="0"
       sodipodi:nodetypes="sssssssss"
       inkscape:export-filename="C:\Home\Dev\Github\Games\Jarrett\Assets\Sprites\Life-Yellow-Selected.png"
       inkscape:export-xdpi="90"
       inkscape:export-ydpi="90" />
    <path
       style="fill:#ffffff;fill-opacity:0.44680852;stroke:none"
       d="m -447.52127,1144.454 c -2.22738,1.5891 -0.43328,4.0131 1.26983,6.4355 26.58345,1.6804 42.96332,0.8987 53.46019,-1.4658 -0.34915,-1.837 -0.99392,-5.0362 -3.99281,-5.0299 -16.89421,0.041 -33.93031,-0.081 -50.73721,0.06 z"
       id="rect4077-4-2-3-8"
       inkscape:connector-curvature="0"
       sodipodi:nodetypes="cccccc"
       inkscape:export-filename="C:\Home\Dev\Github\Games\Jarrett\Assets\Sprites\Life-Yellow-Selected.png"
       inkscape:export-xdpi="90"
       inkscape:export-ydpi="90" />
    <path
       style="fill:#07ab00;fill-opacity:1;stroke:#057700;stroke-width:2.46213651;stroke-linejoin:round;stroke-miterlimit:4;stroke-opacity:1"
       d="m -529.75537,1143.9285 52.99769,0 c 2.19814,0 2.70793,2.298 3.96775,4.2087 l 6.51304,9.8784 c 1.25983,1.9108 -1.76961,4.2089 -3.96773,4.2089 l -52.99768,0 c -2.19815,0 -2.70794,-2.2981 -3.96776,-4.2089 l -6.51304,-9.8784 c -1.25983,-1.9107 1.76961,-4.2087 3.96773,-4.2087 z"
       id="rect4077-45-99-9"
       inkscape:connector-curvature="0"
       sodipodi:nodetypes="sssssssss"
       inkscape:export-filename="C:\Home\Dev\Github\Games\Jarrett\Assets\Sprites\Life-Green-Selected.png"
       inkscape:export-xdpi="90"
       inkscape:export-ydpi="90" />
    <path
       style="fill:#ffffff;fill-opacity:0.44680852;stroke:none"
       d="m -529.66413,1145.1683 c -2.22738,1.5891 -0.43328,4.0131 1.26983,6.4355 26.58345,1.6804 42.96332,0.8987 53.46019,-1.4658 -0.34915,-1.837 -0.99392,-5.0362 -3.99281,-5.0299 -16.89421,0.041 -33.93031,-0.081 -50.73721,0.06 z"
       id="rect4077-4-2-3-7"
       inkscape:connector-curvature="0"
       sodipodi:nodetypes="cccccc"
       inkscape:export-filename="C:\Home\Dev\Github\Games\Jarrett\Assets\Sprites\Life-Green-Selected.png"
       inkscape:export-xdpi="90"
       inkscape:export-ydpi="90" />
    <path
       style="fill:#c57300;fill-opacity:1;stroke:#ffb118;stroke-width:1.76634967;stroke-linejoin:round;stroke-miterlimit:4;stroke-opacity:1"
       d="m -471.0534,1205.6794 26.27703,0 c 1.08987,0 2.15843,2.7648 2.85115,4.1163 l 5.20252,10.1494 c 0.94856,1.8505 -0.8774,4.369 -1.96726,4.369 l -26.27703,0 c -1.08987,0 -2.31889,-2.4997 -3.22996,-4.369 l -4.82371,-9.8969 c -1.96291,-4.0273 0.91911,-4.3688 1.96726,-4.3688 z"
       id="rect4077-43"
       inkscape:connector-curvature="0"
       sodipodi:nodetypes="sssssssss"
       inkscape:export-filename="C:\Home\Dev\Github\Games\Jarrett\Assets\Sprites\Orange-Score-Selected.png"
       inkscape:export-xdpi="90"
       inkscape:export-ydpi="90" />
    <path
       style="fill:#ffffff;fill-opacity:0.5319148;stroke:none"
       d="m -471.76577,1207.0927 c -1.10437,1.6495 1.17413,3.7869 2.01856,6.3014 13.18046,1.7443 21.30184,0.5541 26.50634,-1.9004 -0.17311,-1.9068 -1.12415,-4.5964 -2.61104,-4.5898 -8.3764,0.042 -12.65627,0.042 -20.98937,0.1883 z"
       id="rect4077-4-5"
       inkscape:connector-curvature="0"
       sodipodi:nodetypes="cccccc"
       inkscape:export-filename="C:\Home\Dev\Github\Games\Jarrett\Assets\Sprites\Orange-Score-Selected.png"
       inkscape:export-xdpi="90"
       inkscape:export-ydpi="90" />
    <path
       sodipodi:type="arc"
       style="fill:#34b0ff;fill-opacity:1;stroke:#000000;stroke-width:2.40499999999999980;stroke-linejoin:round;stroke-miterlimit:4;stroke-opacity:1;stroke-dasharray:none"
       id="path4304"
       sodipodi:cx="-505.58136"
       sodipodi:cy="935.68958"
       sodipodi:rx="73.236061"
       sodipodi:ry="67.17514"
       d="m -432.3453,935.68958 a 73.236061,67.17514 0 1 1 -146.47212,0 73.236061,67.17514 0 1 1 146.47212,0 z"
       inkscape:export-filename="C:\Home\Dev\Github\Games\Jarrett\Assets\Sprites\Cannon.png"
       inkscape:export-xdpi="90"
       inkscape:export-ydpi="90" />
    <path
       style="fill:#b6e2ff;fill-opacity:1;stroke:#000000;stroke-width:2;stroke-miterlimit:4;stroke-opacity:1;stroke-dasharray:none"
       d="m -505.53929,991.09386 10.08485,11.42854 -9.64286,34.6751 -9.72771,-35 z"
       id="rect4328"
       inkscape:connector-curvature="0"
       sodipodi:nodetypes="ccccc"
       inkscape:export-filename="C:\Home\Dev\Github\Games\Jarrett\Assets\Sprites\Cannon.png"
       inkscape:export-xdpi="90"
       inkscape:export-ydpi="90" />
    <path
       style="fill:#0090ef;fill-opacity:1;stroke:none"
       d="m -509.65401,1006.1428 c 0,7.8898 6.88642,27.1651 4.32224,27.1651 -2.94299,-10.2278 -5.90554,-22.0532 -8.55719,-30.8269 3.28299,-3.97543 5.86674,-7.59345 8.05211,-9.8663 2.56418,0 -3.81716,5.63833 -3.81716,13.5281 z"
       id="path4331"
       inkscape:connector-curvature="0"
       sodipodi:nodetypes="scccs"
       inkscape:export-filename="C:\Home\Dev\Github\Games\Jarrett\Assets\Sprites\Cannon.png"
       inkscape:export-xdpi="90"
       inkscape:export-ydpi="90" />
    <path
       style="fill:#10ff05;fill-opacity:1;stroke:#068a00;stroke-width:1.04614305;stroke-miterlimit:4;stroke-opacity:1"
       d="m -530.82699,1059.1024 c 4.55363,1.5992 7.80425,1.0554 12.13283,-0.1382 0.64709,-0.1783 1.28216,0.6118 1.36214,1.3889 l 0.30455,2.9557 c 0.08,0.7772 -0.39855,1.409 -1.0732,1.4167 -4.12688,1.2321 -7.92695,0.73 -12.13293,0.1381 -0.67259,-0.095 -1.28205,-0.6117 -1.36213,-1.3888 l -0.30445,-2.9558 c -0.0801,-0.7771 0.39855,-1.4089 1.07319,-1.4166 z"
       id="rect4336"
       inkscape:connector-curvature="0"
       sodipodi:nodetypes="ccssccssc"
       inkscape:export-filename="C:\Home\Dev\Github\Games\Jarrett\Assets\Sprites\Cannon-Life-Green.png"
       inkscape:export-xdpi="90"
       inkscape:export-ydpi="90" />
    <g
       id="g4766"
       transform="matrix(1.0926913,0,0,1.0914229,46.909824,-84.874903)"
       inkscape:export-filename="C:\Home\Dev\Github\Games\Jarrett\Assets\Sprites\Cannon.png"
       inkscape:export-xdpi="90"
       inkscape:export-ydpi="90">
      <path
         sodipodi:nodetypes="cscc"
         inkscape:connector-curvature="0"
         id="path4501"
         d="m -452.7043,936.81731 c 0,25.2363 -23.90002,45.69428 -53.38216,45.69428 -29.48216,0 -53.38218,-20.45798 -53.38218,-45.69428 8.6721,0.23304 98.36993,-0.24402 106.76434,0 z"
         style="fill:#005890;fill-opacity:1;stroke:#000000;stroke-width:1.11199999;stroke-linejoin:round;stroke-miterlimit:4;stroke-opacity:1;stroke-dasharray:none" />
      <path
         sodipodi:nodetypes="ccccc"
         inkscape:connector-curvature="0"
         id="path4501-5"
         d="m -559.36675,937.3466 c 0.84959,9.9006 5.74457,21.47182 8.45287,22.18337 25.26869,-24.72525 63.15719,-25.24016 89.48415,0.90008 6.43203,-6.91477 8.81088,-20.83838 7.78601,-22.92212 -15.73585,0.36149 -98.39728,-0.16923 -105.72303,-0.16133 z"
         style="fill:#ffffff;fill-opacity:0.25;stroke:none" />
    </g>
    <path
       style="fill:#fff50e;fill-opacity:1;stroke:#c3bb00;stroke-width:1.04614305;stroke-miterlimit:4;stroke-opacity:1"
       d="m -511.54172,1059.0741 c 4.55363,1.5992 7.80425,1.0554 12.13283,-0.1382 0.64709,-0.1783 1.28216,0.6118 1.36214,1.3889 l 0.30455,2.9557 c 0.08,0.7772 -0.39855,1.409 -1.0732,1.4167 -4.12688,1.2321 -7.92695,0.73 -12.13293,0.1381 -0.67259,-0.095 -1.28205,-0.6117 -1.36213,-1.3888 l -0.30445,-2.9558 c -0.0801,-0.7771 0.39855,-1.4089 1.07319,-1.4166 z"
       id="rect4336-64"
       inkscape:connector-curvature="0"
       sodipodi:nodetypes="ccssccssc"
       inkscape:export-filename="C:\Home\Dev\Github\Games\Jarrett\Assets\Sprites\Cannon-Life-Yellow.png"
       inkscape:export-xdpi="90"
       inkscape:export-ydpi="90" />
    <path
       style="fill:#ff1e1e;fill-opacity:1;stroke:#a80000;stroke-width:1.04614305;stroke-miterlimit:4;stroke-opacity:1"
       d="m -492.25601,1059.0741 c 4.55363,1.5992 7.80425,1.0554 12.13283,-0.1382 0.64709,-0.1783 1.28216,0.6118 1.36214,1.3889 l 0.30455,2.9557 c 0.08,0.7772 -0.39855,1.409 -1.0732,1.4167 -4.12688,1.2321 -7.92695,0.73 -12.13293,0.1381 -0.67259,-0.095 -1.28205,-0.6117 -1.36213,-1.3888 l -0.30445,-2.9558 c -0.0801,-0.7771 0.39855,-1.4089 1.07319,-1.4166 z"
       id="rect4336-64-7"
       inkscape:connector-curvature="0"
       sodipodi:nodetypes="ccssccssc"
       inkscape:export-filename="C:\Home\Dev\Github\Games\Jarrett\Assets\Sprites\Cannon-Life-Red.png"
       inkscape:export-xdpi="90"
       inkscape:export-ydpi="90" />
    <path
       style="fill:#034700;fill-opacity:1;stroke:#012100;stroke-width:1.04614305;stroke-miterlimit:4;stroke-opacity:1"
       d="m -530.2915,1071.0525 c 4.55363,1.5992 7.80425,1.0554 12.13283,-0.1382 0.64709,-0.1783 1.28216,0.6118 1.36214,1.3889 l 0.30455,2.9557 c 0.08,0.7772 -0.39855,1.409 -1.0732,1.4167 -4.12688,1.2321 -7.92695,0.73 -12.13293,0.1381 -0.67259,-0.095 -1.28205,-0.6117 -1.36213,-1.3888 l -0.30445,-2.9558 c -0.0801,-0.7771 0.39855,-1.4089 1.07319,-1.4166 z"
       id="rect4336-65"
       inkscape:connector-curvature="0"
       sodipodi:nodetypes="ccssccssc"
       inkscape:export-filename="C:\Home\Dev\Github\Games\Jarrett\Assets\Sprites\Cannon-Life-Green-Off.png"
       inkscape:export-xdpi="90"
       inkscape:export-ydpi="90" />
    <path
       style="fill:#4f4b00;fill-opacity:1;stroke:#211f00;stroke-width:1.04614305;stroke-miterlimit:4;stroke-opacity:1"
       d="m -511.00623,1071.0242 c 4.55363,1.5992 7.80425,1.0554 12.13283,-0.1382 0.64709,-0.1783 1.28216,0.6118 1.36214,1.3889 l 0.30455,2.9557 c 0.08,0.7772 -0.39855,1.409 -1.0732,1.4167 -4.12688,1.2321 -7.92695,0.73 -12.13293,0.1381 -0.67259,-0.095 -1.28205,-0.6117 -1.36213,-1.3888 l -0.30445,-2.9558 c -0.0801,-0.7771 0.39855,-1.4089 1.07319,-1.4166 z"
       id="rect4336-64-1"
       inkscape:connector-curvature="0"
       sodipodi:nodetypes="ccssccssc"
       inkscape:export-filename="C:\Home\Dev\Github\Games\Jarrett\Assets\Sprites\Cannon-Life-Yellow-Off.png"
       inkscape:export-xdpi="90"
       inkscape:export-ydpi="90" />
    <path
       style="fill:#620000;fill-opacity:1;stroke:#2b0000;stroke-width:1.04614305;stroke-miterlimit:4;stroke-opacity:1"
       d="m -491.72052,1071.0242 c 4.55363,1.5992 7.80425,1.0554 12.13283,-0.1382 0.64709,-0.1783 1.28216,0.6118 1.36214,1.3889 l 0.30455,2.9557 c 0.08,0.7772 -0.39855,1.409 -1.0732,1.4167 -4.12688,1.2321 -7.92695,0.73 -12.13293,0.1381 -0.67259,-0.095 -1.28205,-0.6117 -1.36213,-1.3888 l -0.30445,-2.9558 c -0.0801,-0.7771 0.39855,-1.4089 1.07319,-1.4166 z"
       id="rect4336-64-7-4"
       inkscape:connector-curvature="0"
       sodipodi:nodetypes="ccssccssc"
       inkscape:export-filename="C:\Home\Dev\Github\Games\Jarrett\Assets\Sprites\Cannon-Life-Red-Off.png"
       inkscape:export-xdpi="90"
       inkscape:export-ydpi="90" />
  </g>
</svg>
