<?xml version="1.0" encoding="UTF-8" standalone="no"?>
<!-- Created with Inkscape (http://www.inkscape.org/) -->

<svg
   xmlns:dc="http://purl.org/dc/elements/1.1/"
   xmlns:cc="http://creativecommons.org/ns#"
   xmlns:rdf="http://www.w3.org/1999/02/22-rdf-syntax-ns#"
   xmlns:svg="http://www.w3.org/2000/svg"
   xmlns="http://www.w3.org/2000/svg"
   xmlns:xlink="http://www.w3.org/1999/xlink"
   xmlns:sodipodi="http://sodipodi.sourceforge.net/DTD/sodipodi-0.dtd"
   xmlns:inkscape="http://www.inkscape.org/namespaces/inkscape"
   width="744.09448819"
   height="1052.3622047"
   id="svg2"
   version="1.1"
   inkscape:version="0.48.4 r9939"
   sodipodi:docname="_sprites.svg">
  <defs
     id="defs4">
    <linearGradient
       y2="-941.8548"
       x2="1712.5298"
       y1="367.35028"
       x1="374.51584"
       gradientTransform="matrix(0.64411389,0,0,0.54383256,524.32246,1070.6379)"
       gradientUnits="userSpaceOnUse"
       id="linearGradient3202"
       xlink:href="#linearGradient3788-2"
       inkscape:collect="always" />
    <linearGradient
       inkscape:collect="always"
       id="linearGradient3788-2">
      <stop
         style="stop-color:#52c9fb;stop-opacity:1"
         offset="0"
         id="stop3790-3" />
      <stop
         style="stop-color:#c1ecff;stop-opacity:1"
         offset="1"
         id="stop3792-22" />
    </linearGradient>
  </defs>
  <sodipodi:namedview
     id="base"
     pagecolor="#ffffff"
     bordercolor="#666666"
     borderopacity="1.0"
     inkscape:pageopacity="0.0"
     inkscape:pageshadow="2"
     inkscape:zoom="0.98994949"
     inkscape:cx="-854.55152"
     inkscape:cy="591.77356"
     inkscape:document-units="px"
     inkscape:current-layer="layer1"
     showgrid="false"
     showborder="false"
     inkscape:showpageshadow="false"
     inkscape:window-width="1920"
     inkscape:window-height="1027"
     inkscape:window-x="-8"
     inkscape:window-y="-8"
     inkscape:window-maximized="1" />
  <metadata
     id="metadata7">
    <rdf:RDF>
      <cc:Work
         rdf:about="">
        <dc:format>image/svg+xml</dc:format>
        <dc:type
           rdf:resource="http://purl.org/dc/dcmitype/StillImage" />
        <dc:title></dc:title>
      </cc:Work>
    </rdf:RDF>
  </metadata>
  <g
     inkscape:label="Layer 1"
     inkscape:groupmode="layer"
     id="layer1">
    <path
       sodipodi:type="arc"
       style="fill:#df0004;fill-opacity:1;stroke:#000000;stroke-width:2.67142844;stroke-linejoin:round;stroke-miterlimit:4;stroke-opacity:1;stroke-dasharray:none"
       id="path2991"
       sodipodi:cx="-628.57141"
       sodipodi:cy="183.79076"
       sodipodi:rx="25.714285"
       sodipodi:ry="25.714285"
       d="m -602.85713,183.79076 a 25.714285,25.714285 0 1 1 -51.42857,0 25.714285,25.714285 0 1 1 51.42857,0 z"
       transform="matrix(1.2569316,0,0,1.2569316,47.105695,64.672526)"
       inkscape:export-filename="C:\Home\Dev\Github\Games\Oscar\oscarGame-android\assets\sprites\bubble-red.png"
       inkscape:export-xdpi="90"
       inkscape:export-ydpi="90" />
    <path
       sodipodi:type="arc"
       style="opacity:0.32300882;fill:#ffffff;fill-opacity:1;stroke:none"
       id="path2991-1"
       sodipodi:cx="-628.57141"
       sodipodi:cy="183.79076"
       sodipodi:rx="25.714285"
       sodipodi:ry="25.714285"
       d="m -602.85713,183.79076 a 25.714285,25.714285 0 1 1 -51.42857,0 25.714285,25.714285 0 1 1 51.42857,0 z"
       transform="matrix(0.69373324,-0.43349165,0.28194283,0.45120386,-365.03934,-68.891409)"
       inkscape:export-filename="C:\Home\Dev\Github\Games\Oscar\oscarGame-android\assets\sprites\bubble-red.png"
       inkscape:export-xdpi="90"
       inkscape:export-ydpi="90" />
    <path
       sodipodi:type="arc"
       style="fill:#00b704;fill-opacity:1;stroke:#000000;stroke-width:2.67142844;stroke-linejoin:round;stroke-miterlimit:4;stroke-opacity:1;stroke-dasharray:none"
       id="path2991-7"
       sodipodi:cx="-628.57141"
       sodipodi:cy="183.79076"
       sodipodi:rx="25.714285"
       sodipodi:ry="25.714285"
       d="m -602.85713,183.79076 a 25.714285,25.714285 0 1 1 -51.42857,0 25.714285,25.714285 0 1 1 51.42857,0 z"
       transform="matrix(1.2569316,0,0,1.2569316,133.28424,62.243478)"
       inkscape:export-filename="C:\Home\Dev\Github\Games\Oscar\oscarGame-android\assets\sprites\bubble-green.png"
       inkscape:export-xdpi="90"
       inkscape:export-ydpi="90" />
    <path
       sodipodi:type="arc"
       style="opacity:0.49557519;fill:#ffffff;fill-opacity:1;stroke:none"
       id="path2991-1-4"
       sodipodi:cx="-628.57141"
       sodipodi:cy="183.79076"
       sodipodi:rx="25.714285"
       sodipodi:ry="25.714285"
       d="m -602.85713,183.79076 a 25.714285,25.714285 0 1 1 -51.42857,0 25.714285,25.714285 0 1 1 51.42857,0 z"
       transform="matrix(0.69373324,-0.43349165,0.28194283,0.45120386,-278.8608,-71.320458)"
       inkscape:export-filename="C:\Home\Dev\Github\Games\Oscar\oscarGame-android\assets\sprites\bubble-green.png"
       inkscape:export-xdpi="90"
       inkscape:export-ydpi="90" />
    <path
       sodipodi:type="arc"
       style="fill:#0047ff;fill-opacity:1;stroke:#000000;stroke-width:2.67142844;stroke-linejoin:round;stroke-miterlimit:4;stroke-opacity:1;stroke-dasharray:none"
       id="path2991-7-0"
       sodipodi:cx="-628.57141"
       sodipodi:cy="183.79076"
       sodipodi:rx="25.714285"
       sodipodi:ry="25.714285"
       d="m -602.85713,183.79076 a 25.714285,25.714285 0 1 1 -51.42857,0 25.714285,25.714285 0 1 1 51.42857,0 z"
       transform="matrix(1.2569316,0,0,1.2569316,220.78425,63.136809)"
       inkscape:export-filename="C:\Home\Dev\Github\Games\Oscar\oscarGame-android\assets\sprites\bubble-blue.png"
       inkscape:export-xdpi="90"
       inkscape:export-ydpi="90" />
    <path
       sodipodi:type="arc"
       style="opacity:0.32300882;fill:#ffffff;fill-opacity:1;stroke:none"
       id="path2991-1-4-9"
       sodipodi:cx="-628.57141"
       sodipodi:cy="183.79076"
       sodipodi:rx="25.714285"
       sodipodi:ry="25.714285"
       d="m -602.85713,183.79076 a 25.714285,25.714285 0 1 1 -51.42857,0 25.714285,25.714285 0 1 1 51.42857,0 z"
       transform="matrix(0.69373324,-0.43349165,0.28194283,0.45120386,-191.36079,-70.427143)"
       inkscape:export-filename="C:\Home\Dev\Github\Games\Oscar\oscarGame-android\assets\sprites\bubble-blue.png"
       inkscape:export-xdpi="90"
       inkscape:export-ydpi="90" />
    <path
       sodipodi:type="arc"
       style="fill:#ad00ce;fill-opacity:1;stroke:#000000;stroke-width:2.67142844;stroke-linejoin:round;stroke-miterlimit:4;stroke-opacity:1;stroke-dasharray:none"
       id="path2991-7-4"
       sodipodi:cx="-628.57141"
       sodipodi:cy="183.79076"
       sodipodi:rx="25.714285"
       sodipodi:ry="25.714285"
       d="m -602.85713,183.79076 a 25.714285,25.714285 0 1 1 -51.42857,0 25.714285,25.714285 0 1 1 51.42857,0 z"
       transform="matrix(1.2569316,0,0,1.2569316,307.9271,64.208245)"
       inkscape:export-filename="C:\Home\Dev\Github\Games\Oscar\oscarGame-android\assets\sprites\bubble-purple.png"
       inkscape:export-xdpi="90"
       inkscape:export-ydpi="90" />
    <path
       sodipodi:type="arc"
       style="opacity:0.32300882;fill:#ffffff;fill-opacity:1;stroke:none"
       id="path2991-1-4-8"
       sodipodi:cx="-628.57141"
       sodipodi:cy="183.79076"
       sodipodi:rx="25.714285"
       sodipodi:ry="25.714285"
       d="m -602.85713,183.79076 a 25.714285,25.714285 0 1 1 -51.42857,0 25.714285,25.714285 0 1 1 51.42857,0 z"
       transform="matrix(0.69373324,-0.43349165,0.28194283,0.45120386,-104.21794,-69.355707)"
       inkscape:export-filename="C:\Home\Dev\Github\Games\Oscar\oscarGame-android\assets\sprites\bubble-purple.png"
       inkscape:export-xdpi="90"
       inkscape:export-ydpi="90" />
    <path
       sodipodi:type="arc"
       style="fill:#ff9b00;fill-opacity:1;stroke:#000000;stroke-width:2.67142844;stroke-linejoin:round;stroke-miterlimit:4;stroke-opacity:1;stroke-dasharray:none"
       id="path2991-7-8"
       sodipodi:cx="-628.57141"
       sodipodi:cy="183.79076"
       sodipodi:rx="25.714285"
       sodipodi:ry="25.714285"
       d="m -602.85713,183.79076 a 25.714285,25.714285 0 1 1 -51.42857,0 25.714285,25.714285 0 1 1 51.42857,0 z"
       transform="matrix(1.2569316,0,0,1.2569316,394.35568,63.493959)"
       inkscape:export-filename="C:\Home\Dev\Github\Games\Oscar\oscarGame-android\assets\sprites\bubble-orange.png"
       inkscape:export-xdpi="90"
       inkscape:export-ydpi="90" />
    <path
       sodipodi:type="arc"
       style="opacity:0.32300882;fill:#ffffff;fill-opacity:1;stroke:none"
       id="path2991-1-4-2"
       sodipodi:cx="-628.57141"
       sodipodi:cy="183.79076"
       sodipodi:rx="25.714285"
       sodipodi:ry="25.714285"
       d="m -602.85713,183.79076 a 25.714285,25.714285 0 1 1 -51.42857,0 25.714285,25.714285 0 1 1 51.42857,0 z"
       transform="matrix(0.69373324,-0.43349165,0.28194283,0.45120386,-17.789362,-70.069993)"
       inkscape:export-filename="C:\Home\Dev\Github\Games\Oscar\oscarGame-android\assets\sprites\bubble-orange.png"
       inkscape:export-xdpi="90"
       inkscape:export-ydpi="90" />
    <rect
       style="fill:#df0004;fill-opacity:1;stroke:#000000;stroke-width:2.84745765;stroke-miterlimit:4;stroke-opacity:1;stroke-dasharray:none"
       id="rect3025"
       width="53.152542"
       height="53.152542"
       x="-1021.3405"
       y="269.38724"
       inkscape:export-filename="C:\Home\Dev\Github\Games\Mulgrew\Mulgrew.Content\Sprites\Jewel-Red.png"
       inkscape:export-xdpi="90"
       inkscape:export-ydpi="90" />
    <path
       style="opacity:0.43362834;fill:#ffffff;fill-opacity:1;stroke:none"
       d="m -1017.3808,295.1388 c 15.1193,0 30.3333,-13.12069 45.45257,-13.12069 0,-2.53031 -0.0949,-6.42881 -0.0949,-9.11661 -15.11926,0 -30.23836,0 -45.35756,0 0,4.26267 0,12.77752 0,22.2373 z"
       id="rect3025-1"
       inkscape:connector-curvature="0"
       sodipodi:nodetypes="ccccc"
       inkscape:export-filename="C:\Home\Dev\Github\Games\Mulgrew\Mulgrew.Content\Sprites\Jewel-Red.png"
       inkscape:export-xdpi="90"
       inkscape:export-ydpi="90" />
  </g>
</svg>
