<?xml version="1.0" encoding="UTF-8" standalone="no"?>
<!-- Created with Inkscape (http://www.inkscape.org/) -->

<svg
   xmlns:dc="http://purl.org/dc/elements/1.1/"
   xmlns:cc="http://creativecommons.org/ns#"
   xmlns:rdf="http://www.w3.org/1999/02/22-rdf-syntax-ns#"
   xmlns:svg="http://www.w3.org/2000/svg"
   xmlns="http://www.w3.org/2000/svg"
   xmlns:sodipodi="http://sodipodi.sourceforge.net/DTD/sodipodi-0.dtd"
   xmlns:inkscape="http://www.inkscape.org/namespaces/inkscape"
   width="744.09448819"
   height="1052.3622047"
   id="svg2"
   version="1.1"
   inkscape:version="0.48.4 r9939"
   sodipodi:docname="New document 1">
  <defs
     id="defs4" />
  <sodipodi:namedview
     id="base"
     pagecolor="#ffffff"
     bordercolor="#666666"
     borderopacity="1.0"
     inkscape:pageopacity="0.0"
     inkscape:pageshadow="2"
     inkscape:zoom="0.98994949"
     inkscape:cx="-759.52572"
     inkscape:cy="605.45101"
     inkscape:document-units="px"
     inkscape:current-layer="layer1"
     showgrid="false"
     showborder="false"
     inkscape:showpageshadow="false"
     inkscape:window-width="1920"
     inkscape:window-height="1027"
     inkscape:window-x="-8"
     inkscape:window-y="-8"
     inkscape:window-maximized="1" />
  <metadata
     id="metadata7">
    <rdf:RDF>
      <cc:Work
         rdf:about="">
        <dc:format>image/svg+xml</dc:format>
        <dc:type
           rdf:resource="http://purl.org/dc/dcmitype/StillImage" />
        <dc:title></dc:title>
      </cc:Work>
    </rdf:RDF>
  </metadata>
  <g
     inkscape:label="Layer 1"
     inkscape:groupmode="layer"
     id="layer1">
    <path
       sodipodi:type="arc"
       style="fill:#004cff;fill-opacity:1;stroke:#000000;stroke-width:16.75499916;stroke-linejoin:round;stroke-miterlimit:4;stroke-opacity:1;stroke-dasharray:none"
       id="path2987"
       sodipodi:cx="-461.42856"
       sodipodi:cy="179.50504"
       sodipodi:rx="181.42857"
       sodipodi:ry="181.42857"
       d="m -279.99998,179.50504 a 181.42857,181.42857 0 1 1 -362.85715,0 181.42857,181.42857 0 1 1 362.85715,0 z"
       transform="matrix(0.10537071,0,0,0.10537071,-582.61358,330.39654)" />
    <path
       style="opacity:0.31415929;fill:#ffffff;fill-opacity:1;stroke:none"
       d="m -632.12088,333.89823 c -5.6557,0.0484 -10.77509,3.97261 -13.08919,9.00178 -1.39541,2.91711 -1.92744,6.43998 -0.82303,9.54346 1.96744,2.06149 7.91895,-3.01012 8.77122,-7.53795 1.25204,-10.89565 13.1288,-4.74302 13.59381,-6.47057 -0.0546,-3.49375 -5.79298,-4.60106 -8.45281,-4.53672 z"
       id="path2987-1"
       inkscape:connector-curvature="0"
       sodipodi:nodetypes="cccccc" />
    <path
       sodipodi:type="arc"
       style="fill:#ff120f;fill-opacity:1;stroke:#000000;stroke-width:16.75499916000000100;stroke-linejoin:round;stroke-miterlimit:4;stroke-opacity:1;stroke-dasharray:none"
       id="path2987-4"
       sodipodi:cx="-461.42856"
       sodipodi:cy="179.50504"
       sodipodi:rx="181.42857"
       sodipodi:ry="181.42857"
       d="m -279.99998,179.50504 a 181.42857,181.42857 0 1 1 -362.85715,0 181.42857,181.42857 0 1 1 362.85715,0 z"
       transform="matrix(0.10537071,0,0,0.10537071,-523.16466,330.23332)" />
    <path
       style="opacity:0.34070796;fill:#ffffff;fill-opacity:1;stroke:none"
       d="m -572.67196,333.73501 c -5.6557,0.0484 -10.77509,3.97261 -13.08919,9.00178 -1.39541,2.91711 -1.92744,6.43998 -0.82303,9.54346 1.96744,2.06149 7.91895,-3.01012 8.77122,-7.53795 1.25204,-10.89565 13.1288,-4.74302 13.59381,-6.47057 -0.0546,-3.49375 -5.79298,-4.60106 -8.45281,-4.53672 z"
       id="path2987-1-0"
       inkscape:connector-curvature="0"
       sodipodi:nodetypes="cccccc" />
    <path
       sodipodi:type="arc"
       style="fill:#039f02;fill-opacity:1;stroke:#000000;stroke-width:16.75499916000000100;stroke-linejoin:round;stroke-miterlimit:4;stroke-opacity:1;stroke-dasharray:none"
       id="path2987-4-9"
       sodipodi:cx="-461.42856"
       sodipodi:cy="179.50504"
       sodipodi:rx="181.42857"
       sodipodi:ry="181.42857"
       d="m -279.99998,179.50504 a 181.42857,181.42857 0 1 1 -362.85715,0 181.42857,181.42857 0 1 1 362.85715,0 z"
       transform="matrix(0.10537071,0,0,0.10537071,-461.73609,330.23332)" />
    <path
       style="opacity:0.36725664;fill:#ffffff;fill-opacity:1;stroke:none"
       d="m -511.24339,333.73501 c -5.6557,0.0484 -10.77509,3.97261 -13.08919,9.00178 -1.39541,2.91711 -1.92744,6.43998 -0.82303,9.54346 1.96744,2.06149 7.91895,-3.01012 8.77122,-7.53795 1.25204,-10.89565 13.1288,-4.74302 13.59381,-6.47057 -0.0546,-3.49375 -5.79298,-4.60106 -8.45281,-4.53672 z"
       id="path2987-1-0-4"
       inkscape:connector-curvature="0"
       sodipodi:nodetypes="cccccc" />
    <path
       sodipodi:type="arc"
       style="fill:#a911ce;fill-opacity:1;stroke:#000000;stroke-width:16.75499916000000100;stroke-linejoin:round;stroke-miterlimit:4;stroke-opacity:1;stroke-dasharray:none"
       id="path2987-4-9-8"
       sodipodi:cx="-461.42856"
       sodipodi:cy="179.50504"
       sodipodi:rx="181.42857"
       sodipodi:ry="181.42857"
       d="m -279.99998,179.50504 a 181.42857,181.42857 0 1 1 -362.85715,0 181.42857,181.42857 0 1 1 362.85715,0 z"
       transform="matrix(0.10537071,0,0,0.10537071,-399.95038,329.1619)" />
    <path
       style="opacity:0.34955752;fill:#ffffff;fill-opacity:1;stroke:none"
       d="m -449.45768,332.66359 c -5.6557,0.0484 -10.77509,3.97261 -13.08919,9.00178 -1.39541,2.91711 -1.92744,6.43998 -0.82303,9.54346 1.96744,2.06149 7.91895,-3.01012 8.77122,-7.53795 1.25204,-10.89565 13.1288,-4.74302 13.59381,-6.47057 -0.0546,-3.49375 -5.79298,-4.60106 -8.45281,-4.53672 z"
       id="path2987-1-0-4-8"
       inkscape:connector-curvature="0"
       sodipodi:nodetypes="cccccc" />
    <path
       sodipodi:type="arc"
       style="fill:#fdd000;fill-opacity:1;stroke:#000000;stroke-width:16.75499916000000100;stroke-linejoin:round;stroke-miterlimit:4;stroke-opacity:1;stroke-dasharray:none"
       id="path2987-4-9-8-2"
       sodipodi:cx="-461.42856"
       sodipodi:cy="179.50504"
       sodipodi:rx="181.42857"
       sodipodi:ry="181.42857"
       d="m -279.99998,179.50504 a 181.42857,181.42857 0 1 1 -362.85715,0 181.42857,181.42857 0 1 1 362.85715,0 z"
       transform="matrix(0.10537071,0,0,0.10537071,-338.87895,328.80475)" />
    <path
       style="opacity:0.52654867;fill:#ffffff;fill-opacity:1;stroke:none"
       d="m -388.38625,332.30644 c -5.6557,0.0484 -10.77509,3.97261 -13.08919,9.00178 -1.39541,2.91711 -1.92744,6.43998 -0.82303,9.54346 1.96744,2.06149 7.91895,-3.01012 8.77122,-7.53795 1.25204,-10.89565 13.1288,-4.74302 13.59381,-6.47057 -0.0546,-3.49375 -5.79298,-4.60106 -8.45281,-4.53672 z"
       id="path2987-1-0-4-8-4"
       inkscape:connector-curvature="0"
       sodipodi:nodetypes="cccccc" />
  </g>
</svg>
